<mxfile host="65bd71144e" modified="2020-12-06T01:55:59.463Z" agent="5.0 (Macintosh; Intel Mac OS X 10_16_0) AppleWebKit/537.36 (KHTML, like Gecko) Code/1.51.1 Chrome/83.0.4103.122 Electron/9.3.3 Safari/537.36" etag="LnysxRiEGd_qEpYqLMRX" version="13.10.0" type="embed" pages="10">
    <diagram id="334945b9-a804-d58e-e725-fdb05cdb344b" name="01 - phases">
        <mxGraphModel dx="799" dy="713" grid="1" gridSize="10" guides="1" tooltips="1" connect="1" arrows="1" fold="1" page="1" pageScale="1" pageWidth="1100" pageHeight="850" background="#ffffff" math="0" shadow="0">
            <root>
                <mxCell id="0"/>
                <mxCell id="1" parent="0"/>
                <mxCell id="3" value="" style="endArrow=classic;html=1;strokeColor=#000000;strokeWidth=3;fontSize=20;fontColor=#000000;" parent="1" edge="1">
                    <mxGeometry width="50" height="50" relative="1" as="geometry">
                        <mxPoint x="380" y="120" as="sourcePoint"/>
                        <mxPoint x="380" y="490" as="targetPoint"/>
                    </mxGeometry>
                </mxCell>
                <mxCell id="5" value="Interview Phase" style="rounded=0;whiteSpace=wrap;html=1;shadow=0;labelBackgroundColor=none;strokeColor=#080808;strokeWidth=2;fillColor=#ffffff;fontSize=20;fontColor=#000000;align=center;" parent="1" vertex="1">
                    <mxGeometry x="400" y="325" width="110" height="170" as="geometry"/>
                </mxCell>
                <mxCell id="6" value="Time" style="text;html=1;strokeColor=none;fillColor=none;align=center;verticalAlign=middle;whiteSpace=wrap;rounded=0;shadow=0;labelBackgroundColor=none;fontSize=20;fontColor=#000000;" parent="1" vertex="1">
                    <mxGeometry x="320" y="120" width="40" height="20" as="geometry"/>
                </mxCell>
                <mxCell id="7" value="Contact Phase" style="rounded=0;whiteSpace=wrap;html=1;shadow=0;labelBackgroundColor=none;strokeColor=#080808;strokeWidth=2;fillColor=#ffffff;fontSize=20;fontColor=#000000;align=center;" parent="1" vertex="1">
                    <mxGeometry x="400" y="120" width="110" height="170" as="geometry"/>
                </mxCell>
                <mxCell id="8" value="Talk to recruiter" style="rounded=0;whiteSpace=wrap;html=1;shadow=0;labelBackgroundColor=none;strokeColor=#080808;strokeWidth=2;fillColor=#ffffff;fontSize=18;fontColor=#000000;align=center;" parent="1" vertex="1">
                    <mxGeometry x="510" y="120" width="120" height="50" as="geometry"/>
                </mxCell>
                <mxCell id="9" value="Friend refers you" style="rounded=0;whiteSpace=wrap;html=1;shadow=0;labelBackgroundColor=none;strokeColor=#080808;strokeWidth=2;fillColor=#ffffff;fontSize=18;fontColor=#000000;align=center;" parent="1" vertex="1">
                    <mxGeometry x="510" y="180" width="120" height="50" as="geometry"/>
                </mxCell>
                <mxCell id="10" value="Submit resume online" style="rounded=0;whiteSpace=wrap;html=1;shadow=0;labelBackgroundColor=none;strokeColor=#080808;strokeWidth=2;fillColor=#ffffff;fontSize=18;fontColor=#000000;align=center;" parent="1" vertex="1">
                    <mxGeometry x="510" y="240" width="120" height="50" as="geometry"/>
                </mxCell>
                <mxCell id="11" value="Phone screen" style="rounded=0;whiteSpace=wrap;html=1;shadow=0;labelBackgroundColor=none;strokeColor=#080808;strokeWidth=2;fillColor=#ffffff;fontSize=18;fontColor=#000000;align=center;" parent="1" vertex="1">
                    <mxGeometry x="510" y="350" width="120" height="50" as="geometry"/>
                </mxCell>
                <mxCell id="12" value="Onsite interview" style="rounded=0;whiteSpace=wrap;html=1;shadow=0;labelBackgroundColor=none;strokeColor=#080808;strokeWidth=2;fillColor=#ffffff;fontSize=18;fontColor=#000000;align=center;" parent="1" vertex="1">
                    <mxGeometry x="510" y="427" width="120" height="50" as="geometry"/>
                </mxCell>
            </root>
        </mxGraphModel>
    </diagram>
    <diagram name="02 - more phases" id="c4a9de0b-fa13-f72f-c484-116d65002d20">
        <mxGraphModel dx="799" dy="713" grid="1" gridSize="10" guides="1" tooltips="1" connect="1" arrows="1" fold="1" page="1" pageScale="1" pageWidth="1100" pageHeight="850" background="#ffffff" math="0" shadow="0">
            <root>
                <mxCell id="0"/>
                <mxCell id="1" parent="0"/>
                <mxCell id="2" value="" style="endArrow=classic;html=1;strokeColor=#000000;strokeWidth=3;fontSize=20;fontColor=#000000;" parent="1" edge="1">
                    <mxGeometry width="50" height="50" relative="1" as="geometry">
                        <mxPoint x="380" y="120" as="sourcePoint"/>
                        <mxPoint x="380" y="490" as="targetPoint"/>
                    </mxGeometry>
                </mxCell>
                <mxCell id="3" value="Interview Phase" style="rounded=0;whiteSpace=wrap;html=1;shadow=0;labelBackgroundColor=none;strokeColor=#080808;strokeWidth=2;fillColor=#ffffff;fontSize=20;fontColor=#000000;align=center;" parent="1" vertex="1">
                    <mxGeometry x="400" y="325" width="110" height="170" as="geometry"/>
                </mxCell>
                <mxCell id="4" value="Time" style="text;html=1;strokeColor=none;fillColor=none;align=center;verticalAlign=middle;whiteSpace=wrap;rounded=0;shadow=0;labelBackgroundColor=none;fontSize=20;fontColor=#000000;" parent="1" vertex="1">
                    <mxGeometry x="320" y="120" width="40" height="20" as="geometry"/>
                </mxCell>
                <mxCell id="5" value="Contact Phase" style="rounded=0;whiteSpace=wrap;html=1;shadow=0;labelBackgroundColor=none;strokeColor=#080808;strokeWidth=2;fillColor=#ffffff;fontSize=20;fontColor=#000000;align=center;" parent="1" vertex="1">
                    <mxGeometry x="400" y="120" width="110" height="170" as="geometry"/>
                </mxCell>
                <mxCell id="6" value="Talk to recruiter" style="rounded=0;whiteSpace=wrap;html=1;shadow=0;labelBackgroundColor=none;strokeColor=#080808;strokeWidth=2;fillColor=#ffffff;fontSize=18;fontColor=#000000;align=center;" parent="1" vertex="1">
                    <mxGeometry x="510" y="120" width="120" height="50" as="geometry"/>
                </mxCell>
                <mxCell id="7" value="Friend refers you" style="rounded=0;whiteSpace=wrap;html=1;shadow=0;labelBackgroundColor=none;strokeColor=#080808;strokeWidth=2;fillColor=#ffffff;fontSize=18;fontColor=#000000;align=center;" parent="1" vertex="1">
                    <mxGeometry x="510" y="180" width="120" height="50" as="geometry"/>
                </mxCell>
                <mxCell id="8" value="Submit resume online" style="rounded=0;whiteSpace=wrap;html=1;shadow=0;labelBackgroundColor=none;strokeColor=#080808;strokeWidth=2;fillColor=#ffffff;fontSize=18;fontColor=#000000;align=center;" parent="1" vertex="1">
                    <mxGeometry x="510" y="240" width="120" height="50" as="geometry"/>
                </mxCell>
                <mxCell id="9" value="Phone screen" style="rounded=0;whiteSpace=wrap;html=1;shadow=0;labelBackgroundColor=none;strokeColor=#080808;strokeWidth=2;fillColor=#ffffff;fontSize=18;fontColor=#000000;align=center;" parent="1" vertex="1">
                    <mxGeometry x="510" y="325" width="120" height="50" as="geometry"/>
                </mxCell>
                <mxCell id="10" value="Onsite interview" style="rounded=0;whiteSpace=wrap;html=1;shadow=0;labelBackgroundColor=none;strokeColor=#080808;strokeWidth=2;fillColor=#ffffff;fontSize=18;fontColor=#000000;align=center;" parent="1" vertex="1">
                    <mxGeometry x="510" y="385" width="120" height="50" as="geometry"/>
                </mxCell>
                <mxCell id="11" value="Take home assignment" style="rounded=0;whiteSpace=wrap;html=1;shadow=0;labelBackgroundColor=none;strokeColor=#080808;strokeWidth=2;fillColor=#ffffff;fontSize=18;fontColor=#000000;align=center;" parent="1" vertex="1">
                    <mxGeometry x="510" y="445" width="120" height="50" as="geometry"/>
                </mxCell>
                <mxCell id="12" value="" style="shape=curlyBracket;whiteSpace=wrap;html=1;rounded=1;shadow=0;labelBackgroundColor=none;strokeColor=#080808;strokeWidth=2;fillColor=#ffffff;fontSize=18;fontColor=#000000;align=center;rotation=180;" parent="1" vertex="1">
                    <mxGeometry x="640" y="120" width="50" height="170" as="geometry"/>
                </mxCell>
                <mxCell id="14" value="" style="shape=curlyBracket;whiteSpace=wrap;html=1;rounded=1;shadow=0;labelBackgroundColor=none;strokeColor=#080808;strokeWidth=2;fillColor=#ffffff;fontSize=18;fontColor=#000000;align=center;rotation=180;" parent="1" vertex="1">
                    <mxGeometry x="640" y="325" width="50" height="170" as="geometry"/>
                </mxCell>
                <mxCell id="16" value="Work experience" style="rounded=0;whiteSpace=wrap;html=1;shadow=0;labelBackgroundColor=none;strokeColor=#6c8ebf;strokeWidth=2;fillColor=#dae8fc;fontSize=14;fontColor=#000000;align=center;" parent="1" vertex="1">
                    <mxGeometry x="690" y="168" width="120" height="25" as="geometry"/>
                </mxCell>
                <mxCell id="17" value="Side projects" style="rounded=0;whiteSpace=wrap;html=1;shadow=0;labelBackgroundColor=none;strokeColor=#6c8ebf;strokeWidth=2;fillColor=#dae8fc;fontSize=14;fontColor=#000000;align=center;" parent="1" vertex="1">
                    <mxGeometry x="690" y="193" width="120" height="25" as="geometry"/>
                </mxCell>
                <mxCell id="18" value="Social contacts" style="rounded=0;whiteSpace=wrap;html=1;shadow=0;labelBackgroundColor=none;strokeColor=#6c8ebf;strokeWidth=2;fillColor=#dae8fc;fontSize=14;fontColor=#000000;align=center;" parent="1" vertex="1">
                    <mxGeometry x="690" y="218" width="120" height="25" as="geometry"/>
                </mxCell>
                <mxCell id="19" value="Culture Fit?" style="rounded=0;whiteSpace=wrap;html=1;shadow=0;labelBackgroundColor=none;strokeColor=#6c8ebf;strokeWidth=2;fillColor=#dae8fc;fontSize=14;fontColor=#000000;align=center;" parent="1" vertex="1">
                    <mxGeometry x="690" y="385" width="120" height="25" as="geometry"/>
                </mxCell>
                <mxCell id="20" value="Can you code?" style="rounded=0;whiteSpace=wrap;html=1;shadow=0;labelBackgroundColor=none;strokeColor=#82b366;strokeWidth=2;fillColor=#d5e8d4;fontSize=14;fontColor=#000000;align=center;fontStyle=1" parent="1" vertex="1">
                    <mxGeometry x="690" y="410" width="120" height="25" as="geometry"/>
                </mxCell>
            </root>
        </mxGraphModel>
    </diagram>
    <diagram id="9737d349-8bd0-fd7e-3602-53a8922cc7f1" name="03 - evaluate">
        <mxGraphModel dx="799" dy="713" grid="1" gridSize="10" guides="1" tooltips="1" connect="1" arrows="1" fold="1" page="1" pageScale="1" pageWidth="1100" pageHeight="850" background="#ffffff" math="0" shadow="0">
            <root>
                <mxCell id="0"/>
                <mxCell id="1" parent="0"/>
                <mxCell id="3" value="Evaluating Coding Ability" style="text;html=1;strokeColor=none;fillColor=none;align=center;verticalAlign=middle;whiteSpace=wrap;rounded=0;shadow=0;labelBackgroundColor=none;fontSize=24;fontColor=#000000;fontStyle=1" parent="1" vertex="1">
                    <mxGeometry x="398" y="120" width="305" height="30" as="geometry"/>
                </mxCell>
                <mxCell id="4" value="Whiteboarding" style="rounded=0;whiteSpace=wrap;html=1;shadow=0;labelBackgroundColor=none;strokeColor=#080808;strokeWidth=2;fillColor=#ffffff;fontSize=18;fontColor=#000000;align=center;" parent="1" vertex="1">
                    <mxGeometry x="640" y="200" width="160" height="60" as="geometry"/>
                </mxCell>
                <mxCell id="5" value="Pair programming at a computer" style="rounded=0;whiteSpace=wrap;html=1;shadow=0;labelBackgroundColor=none;strokeColor=#080808;strokeWidth=2;fillColor=#ffffff;fontSize=18;fontColor=#000000;align=center;" parent="1" vertex="1">
                    <mxGeometry x="471" y="200" width="160" height="60" as="geometry"/>
                </mxCell>
                <mxCell id="6" value="Take-home assignment" style="rounded=0;whiteSpace=wrap;html=1;shadow=0;labelBackgroundColor=none;strokeColor=#080808;strokeWidth=2;fillColor=#ffffff;fontSize=18;fontColor=#000000;align=center;" parent="1" vertex="1">
                    <mxGeometry x="300" y="200" width="160" height="60" as="geometry"/>
                </mxCell>
            </root>
        </mxGraphModel>
    </diagram>
    <diagram id="77927c75-43a7-b2fa-7560-c4043918af7e" name="07 - how to get better">
        <mxGraphModel dx="799" dy="713" grid="1" gridSize="10" guides="1" tooltips="1" connect="1" arrows="1" fold="1" page="1" pageScale="1" pageWidth="1100" pageHeight="850" background="#ffffff" math="0" shadow="0">
            <root>
                <mxCell id="0"/>
                <mxCell id="1" parent="0"/>
                <mxCell id="2" value="How to get really good at whiteboard questions?" style="text;html=1;strokeColor=none;fillColor=none;align=center;verticalAlign=middle;whiteSpace=wrap;rounded=0;shadow=0;labelBackgroundColor=none;fontSize=20;fontColor=#000000;fontStyle=1" parent="1" vertex="1">
                    <mxGeometry x="400" y="160" width="280" height="100" as="geometry"/>
                </mxCell>
            </root>
        </mxGraphModel>
    </diagram>
    <diagram id="4a1621b3-4ff5-793d-cc74-36511ab58124" name="08 - practice">
        <mxGraphModel dx="799" dy="713" grid="1" gridSize="10" guides="1" tooltips="1" connect="1" arrows="1" fold="1" page="1" pageScale="1" pageWidth="1100" pageHeight="850" background="#ffffff" math="0" shadow="0">
            <root>
                <mxCell id="0"/>
                <mxCell id="1" parent="0"/>
                <mxCell id="4" value="Practice" style="rounded=0;whiteSpace=wrap;html=1;shadow=0;labelBackgroundColor=none;strokeColor=#080808;strokeWidth=2;fillColor=#ffffff;fontSize=20;fontColor=#000000;align=center;" parent="1" vertex="1">
                    <mxGeometry x="450" y="260" width="120" height="60" as="geometry"/>
                </mxCell>
                <mxCell id="6" value="Practice" style="rounded=0;whiteSpace=wrap;html=1;shadow=0;labelBackgroundColor=none;strokeColor=#080808;strokeWidth=2;fillColor=#ffffff;fontSize=20;fontColor=#000000;align=center;" parent="1" vertex="1">
                    <mxGeometry x="570" y="260" width="120" height="60" as="geometry"/>
                </mxCell>
                <mxCell id="8" value="Practice" style="rounded=0;whiteSpace=wrap;html=1;shadow=0;labelBackgroundColor=none;strokeColor=#080808;strokeWidth=2;fillColor=#ffffff;fontSize=20;fontColor=#000000;align=center;" parent="1" vertex="1">
                    <mxGeometry x="330" y="260" width="120" height="60" as="geometry"/>
                </mxCell>
                <mxCell id="9" value="Practice" style="rounded=0;whiteSpace=wrap;html=1;shadow=0;labelBackgroundColor=none;strokeColor=#080808;strokeWidth=2;fillColor=#ffffff;fontSize=20;fontColor=#000000;align=center;" parent="1" vertex="1">
                    <mxGeometry x="450" y="200" width="120" height="60" as="geometry"/>
                </mxCell>
                <mxCell id="10" value="Practice" style="rounded=0;whiteSpace=wrap;html=1;shadow=0;labelBackgroundColor=none;strokeColor=#080808;strokeWidth=2;fillColor=#ffffff;fontSize=20;fontColor=#000000;align=center;" parent="1" vertex="1">
                    <mxGeometry x="570" y="200" width="120" height="60" as="geometry"/>
                </mxCell>
                <mxCell id="11" value="Practice" style="rounded=0;whiteSpace=wrap;html=1;shadow=0;labelBackgroundColor=none;strokeColor=#080808;strokeWidth=2;fillColor=#ffffff;fontSize=20;fontColor=#000000;align=center;" parent="1" vertex="1">
                    <mxGeometry x="330" y="200" width="120" height="60" as="geometry"/>
                </mxCell>
                <mxCell id="12" value="Practice" style="rounded=0;whiteSpace=wrap;html=1;shadow=0;labelBackgroundColor=none;strokeColor=#080808;strokeWidth=2;fillColor=#ffffff;fontSize=20;fontColor=#000000;align=center;" parent="1" vertex="1">
                    <mxGeometry x="450" y="320" width="120" height="60" as="geometry"/>
                </mxCell>
                <mxCell id="13" value="Practice" style="rounded=0;whiteSpace=wrap;html=1;shadow=0;labelBackgroundColor=none;strokeColor=#080808;strokeWidth=2;fillColor=#ffffff;fontSize=20;fontColor=#000000;align=center;" parent="1" vertex="1">
                    <mxGeometry x="570" y="320" width="120" height="60" as="geometry"/>
                </mxCell>
                <mxCell id="14" value="Practice" style="rounded=0;whiteSpace=wrap;html=1;shadow=0;labelBackgroundColor=none;strokeColor=#080808;strokeWidth=2;fillColor=#ffffff;fontSize=20;fontColor=#000000;align=center;" parent="1" vertex="1">
                    <mxGeometry x="330" y="320" width="120" height="60" as="geometry"/>
                </mxCell>
            </root>
        </mxGraphModel>
    </diagram>
    <diagram id="4ef9dff1-1707-02ce-a700-7bf51485d3e9" name="09 - fizzbuzz">
        <mxGraphModel dx="799" dy="713" grid="1" gridSize="10" guides="1" tooltips="1" connect="1" arrows="1" fold="1" page="1" pageScale="1" pageWidth="1100" pageHeight="850" background="#ffffff" math="0" shadow="0">
            <root>
                <mxCell id="0"/>
                <mxCell id="1" parent="0"/>
                <mxCell id="2" value="Fizzbuzz" style="rounded=0;whiteSpace=wrap;html=1;shadow=0;labelBackgroundColor=none;strokeColor=#080808;strokeWidth=2;fillColor=#ffffff;fontSize=20;fontColor=#000000;align=center;" parent="1" vertex="1">
                    <mxGeometry x="260" y="230" width="120" height="60" as="geometry"/>
                </mxCell>
                <mxCell id="4" value="&quot;Write a program that prints the numbers from 1 to 100. But for multiples of three print “Fizz” instead of the number and for the multiples of five print “Buzz”. For numbers which are multiples of both three and five print “FizzBuzz”.&quot;" style="text;html=1;strokeColor=none;fillColor=none;align=left;verticalAlign=middle;whiteSpace=wrap;rounded=0;shadow=0;labelBackgroundColor=none;fontSize=20;fontColor=#000000;" parent="1" vertex="1">
                    <mxGeometry x="400" y="250" width="530" height="20" as="geometry"/>
                </mxCell>
            </root>
        </mxGraphModel>
    </diagram>
    <diagram id="ac45f265-6036-9cab-5705-abda7caa0e67" name="10 - fib">
        <mxGraphModel dx="799" dy="713" grid="1" gridSize="10" guides="1" tooltips="1" connect="1" arrows="1" fold="1" page="1" pageScale="1" pageWidth="1100" pageHeight="850" background="#ffffff" math="0" shadow="0">
            <root>
                <mxCell id="0"/>
                <mxCell id="1" parent="0"/>
                <mxCell id="2" value="Fibonacci Series" style="rounded=0;whiteSpace=wrap;html=1;shadow=0;labelBackgroundColor=none;strokeColor=#080808;strokeWidth=2;fillColor=#ffffff;fontSize=20;fontColor=#000000;align=center;" parent="1" vertex="1">
                    <mxGeometry x="260" y="120" width="120" height="60" as="geometry"/>
                </mxCell>
                <mxCell id="3" value="&lt;span&gt;A series of numbers in which each number (&amp;nbsp;&lt;/span&gt;&lt;i&gt;Fibonacci number&lt;/i&gt;&lt;span&gt;) is the sum of the two preceding numbers. The simplest is the series 1, 1, 2, 3, 5, 8, etc.&lt;/span&gt;" style="text;html=1;strokeColor=none;fillColor=none;align=left;verticalAlign=middle;whiteSpace=wrap;rounded=0;shadow=0;labelBackgroundColor=none;fontSize=20;fontColor=#000000;" parent="1" vertex="1">
                    <mxGeometry x="390" y="100" width="430" height="100" as="geometry"/>
                </mxCell>
                <mxCell id="4" value="Recursive solution" style="rounded=0;whiteSpace=wrap;html=1;shadow=0;labelBackgroundColor=none;strokeColor=#080808;strokeWidth=2;fillColor=#ffffff;fontSize=20;fontColor=#000000;align=center;" parent="1" vertex="1">
                    <mxGeometry x="260" y="320" width="120" height="60" as="geometry"/>
                </mxCell>
                <mxCell id="5" value="&lt;div&gt;function fib(n) {&lt;/div&gt;&lt;div&gt;&amp;nbsp; if (n &amp;lt; 2) {&lt;/div&gt;&lt;div&gt;&amp;nbsp; &amp;nbsp; return n;&lt;/div&gt;&lt;div&gt;&amp;nbsp; }&lt;/div&gt;&lt;div&gt;&amp;nbsp; return fib(n - 1) + fib(n - 2);&lt;/div&gt;&lt;div&gt;}&lt;/div&gt;" style="text;html=1;strokeColor=none;fillColor=none;align=left;verticalAlign=middle;whiteSpace=wrap;rounded=0;shadow=0;labelBackgroundColor=none;fontSize=20;fontColor=#000000;" parent="1" vertex="1">
                    <mxGeometry x="395" y="310" width="310" height="80" as="geometry"/>
                </mxCell>
            </root>
        </mxGraphModel>
    </diagram>
    <diagram id="28810762-0846-5485-aa8a-621d8f815b42" name="04 - practical">
        <mxGraphModel dx="799" dy="713" grid="1" gridSize="10" guides="1" tooltips="1" connect="1" arrows="1" fold="1" page="1" pageScale="1" pageWidth="1100" pageHeight="850" background="#ffffff" math="0" shadow="0">
            <root>
                <mxCell id="0"/>
                <mxCell id="1" parent="0"/>
                <mxCell id="2" value="" style="endArrow=classic;startArrow=classic;html=1;strokeColor=#000000;strokeWidth=3;fontSize=18;fontColor=#000000;" parent="1" edge="1">
                    <mxGeometry width="50" height="50" relative="1" as="geometry">
                        <mxPoint x="340" y="470" as="sourcePoint"/>
                        <mxPoint x="340" y="110" as="targetPoint"/>
                    </mxGeometry>
                </mxCell>
                <mxCell id="3" value="Build a todo app with React" style="rounded=0;whiteSpace=wrap;html=1;shadow=0;labelBackgroundColor=none;strokeColor=#080808;strokeWidth=2;fillColor=#ffffff;fontSize=14;fontColor=#000000;align=center;" parent="1" vertex="1">
                    <mxGeometry x="370" y="115" width="220" height="35" as="geometry"/>
                </mxCell>
                <mxCell id="4" value="Practical" style="text;html=1;strokeColor=none;fillColor=none;align=center;verticalAlign=middle;whiteSpace=wrap;rounded=0;shadow=0;labelBackgroundColor=none;fontSize=18;fontColor=#000000;" parent="1" vertex="1">
                    <mxGeometry x="266" y="120" width="40" height="20" as="geometry"/>
                </mxCell>
                <mxCell id="5" value="Theoretical" style="text;html=1;strokeColor=none;fillColor=none;align=center;verticalAlign=middle;whiteSpace=wrap;rounded=0;shadow=0;labelBackgroundColor=none;fontSize=18;fontColor=#000000;" parent="1" vertex="1">
                    <mxGeometry x="261" y="440" width="40" height="20" as="geometry"/>
                </mxCell>
                <mxCell id="6" value="Build a 'promise' implementation" style="rounded=0;whiteSpace=wrap;html=1;shadow=0;labelBackgroundColor=none;strokeColor=#080808;strokeWidth=2;fillColor=#ffffff;fontSize=14;fontColor=#000000;align=center;" parent="1" vertex="1">
                    <mxGeometry x="370" y="260" width="220" height="35" as="geometry"/>
                </mxCell>
                <mxCell id="7" value="Implement a sorting algorithm" style="rounded=0;whiteSpace=wrap;html=1;shadow=0;labelBackgroundColor=none;strokeColor=#080808;strokeWidth=2;fillColor=#ffffff;fontSize=14;fontColor=#000000;align=center;" parent="1" vertex="1">
                    <mxGeometry x="370" y="425" width="220" height="35" as="geometry"/>
                </mxCell>
                <mxCell id="8" value="Style a page with CSS" style="rounded=0;whiteSpace=wrap;html=1;shadow=0;labelBackgroundColor=none;strokeColor=#080808;strokeWidth=2;fillColor=#ffffff;fontSize=14;fontColor=#000000;align=center;" parent="1" vertex="1">
                    <mxGeometry x="370" y="150" width="220" height="35" as="geometry"/>
                </mxCell>
                <mxCell id="9" value="Build an event handler" style="rounded=0;whiteSpace=wrap;html=1;shadow=0;labelBackgroundColor=none;strokeColor=#080808;strokeWidth=2;fillColor=#ffffff;fontSize=14;fontColor=#000000;align=center;" parent="1" vertex="1">
                    <mxGeometry x="370" y="295" width="220" height="35" as="geometry"/>
                </mxCell>
                <mxCell id="10" value="Find some prime numbers" style="rounded=0;whiteSpace=wrap;html=1;shadow=0;labelBackgroundColor=none;strokeColor=#080808;strokeWidth=2;fillColor=#ffffff;fontSize=14;fontColor=#000000;align=center;" parent="1" vertex="1">
                    <mxGeometry x="370" y="390" width="220" height="35" as="geometry"/>
                </mxCell>
            </root>
        </mxGraphModel>
    </diagram>
    <diagram name="05 - skills" id="514303e6-dd67-cf1c-0757-d172b3cbb5b2">
        <mxGraphModel dx="799" dy="713" grid="1" gridSize="10" guides="1" tooltips="1" connect="1" arrows="1" fold="1" page="1" pageScale="1" pageWidth="1100" pageHeight="850" background="#ffffff" math="0" shadow="0">
            <root>
                <mxCell id="0"/>
                <mxCell id="1" parent="0"/>
                <mxCell id="2" value="" style="endArrow=classic;startArrow=classic;html=1;strokeColor=#000000;strokeWidth=3;fontSize=18;fontColor=#000000;" parent="1" edge="1">
                    <mxGeometry width="50" height="50" relative="1" as="geometry">
                        <mxPoint x="340" y="470" as="sourcePoint"/>
                        <mxPoint x="340" y="110" as="targetPoint"/>
                    </mxGeometry>
                </mxCell>
                <mxCell id="3" value="Build a todo app with React" style="rounded=0;whiteSpace=wrap;html=1;shadow=0;labelBackgroundColor=none;strokeColor=#080808;strokeWidth=2;fillColor=#ffffff;fontSize=14;fontColor=#000000;align=center;" parent="1" vertex="1">
                    <mxGeometry x="370" y="115" width="220" height="35" as="geometry"/>
                </mxCell>
                <mxCell id="4" value="Practical" style="text;html=1;strokeColor=none;fillColor=none;align=center;verticalAlign=middle;whiteSpace=wrap;rounded=0;shadow=0;labelBackgroundColor=none;fontSize=18;fontColor=#000000;" parent="1" vertex="1">
                    <mxGeometry x="266" y="120" width="40" height="20" as="geometry"/>
                </mxCell>
                <mxCell id="5" value="Theoretical" style="text;html=1;strokeColor=none;fillColor=none;align=center;verticalAlign=middle;whiteSpace=wrap;rounded=0;shadow=0;labelBackgroundColor=none;fontSize=18;fontColor=#000000;" parent="1" vertex="1">
                    <mxGeometry x="261" y="440" width="40" height="20" as="geometry"/>
                </mxCell>
                <mxCell id="6" value="Build a 'promise' implementation" style="rounded=0;whiteSpace=wrap;html=1;shadow=0;labelBackgroundColor=none;strokeColor=#080808;strokeWidth=2;fillColor=#ffffff;fontSize=14;fontColor=#000000;align=center;" parent="1" vertex="1">
                    <mxGeometry x="370" y="260" width="220" height="35" as="geometry"/>
                </mxCell>
                <mxCell id="7" value="Implement a sorting algorithm" style="rounded=0;whiteSpace=wrap;html=1;shadow=0;labelBackgroundColor=none;strokeColor=#080808;strokeWidth=2;fillColor=#ffffff;fontSize=14;fontColor=#000000;align=center;" parent="1" vertex="1">
                    <mxGeometry x="370" y="425" width="220" height="35" as="geometry"/>
                </mxCell>
                <mxCell id="8" value="Style a page with CSS" style="rounded=0;whiteSpace=wrap;html=1;shadow=0;labelBackgroundColor=none;strokeColor=#080808;strokeWidth=2;fillColor=#ffffff;fontSize=14;fontColor=#000000;align=center;" parent="1" vertex="1">
                    <mxGeometry x="370" y="150" width="220" height="35" as="geometry"/>
                </mxCell>
                <mxCell id="9" value="Build an event handler" style="rounded=0;whiteSpace=wrap;html=1;shadow=0;labelBackgroundColor=none;strokeColor=#080808;strokeWidth=2;fillColor=#ffffff;fontSize=14;fontColor=#000000;align=center;" parent="1" vertex="1">
                    <mxGeometry x="370" y="295" width="220" height="35" as="geometry"/>
                </mxCell>
                <mxCell id="10" value="Find some prime numbers" style="rounded=0;whiteSpace=wrap;html=1;shadow=0;labelBackgroundColor=none;strokeColor=#080808;strokeWidth=2;fillColor=#ffffff;fontSize=14;fontColor=#000000;align=center;" parent="1" vertex="1">
                    <mxGeometry x="370" y="390" width="220" height="35" as="geometry"/>
                </mxCell>
                <mxCell id="11" value="" style="shape=curlyBracket;whiteSpace=wrap;html=1;rounded=1;shadow=0;labelBackgroundColor=none;strokeColor=#080808;strokeWidth=2;fillColor=#ffffff;fontSize=14;fontColor=#000000;align=center;rotation=179;" parent="1" vertex="1">
                    <mxGeometry x="610" y="118" width="50" height="65" as="geometry"/>
                </mxCell>
                <mxCell id="12" value="Get better by building stuff!" style="text;html=1;strokeColor=none;fillColor=none;align=left;verticalAlign=middle;whiteSpace=wrap;rounded=0;shadow=0;labelBackgroundColor=none;fontSize=14;fontColor=#000000;" parent="1" vertex="1">
                    <mxGeometry x="660" y="140" width="100" height="20" as="geometry"/>
                </mxCell>
                <mxCell id="13" value="" style="shape=curlyBracket;whiteSpace=wrap;html=1;rounded=1;shadow=0;labelBackgroundColor=none;strokeColor=#080808;strokeWidth=2;fillColor=#ffffff;fontSize=14;fontColor=#000000;align=center;rotation=179;" parent="1" vertex="1">
                    <mxGeometry x="610" y="263" width="50" height="65" as="geometry"/>
                </mxCell>
                <mxCell id="14" value="Get better by building stuff &lt;b&gt;and&lt;/b&gt; deliberate practice" style="text;html=1;strokeColor=none;fillColor=none;align=left;verticalAlign=middle;whiteSpace=wrap;rounded=0;shadow=0;labelBackgroundColor=none;fontSize=14;fontColor=#000000;" parent="1" vertex="1">
                    <mxGeometry x="660" y="286" width="130" height="20" as="geometry"/>
                </mxCell>
                <mxCell id="15" value="" style="shape=curlyBracket;whiteSpace=wrap;html=1;rounded=1;shadow=0;labelBackgroundColor=none;strokeColor=#080808;strokeWidth=2;fillColor=#ffffff;fontSize=14;fontColor=#000000;align=center;rotation=179;" parent="1" vertex="1">
                    <mxGeometry x="610" y="393" width="50" height="65" as="geometry"/>
                </mxCell>
                <mxCell id="16" value="Get better by deliberate practice" style="text;html=1;strokeColor=none;fillColor=none;align=left;verticalAlign=middle;whiteSpace=wrap;rounded=0;shadow=0;labelBackgroundColor=none;fontSize=14;fontColor=#000000;" parent="1" vertex="1">
                    <mxGeometry x="660" y="415" width="120" height="20" as="geometry"/>
                </mxCell>
            </root>
        </mxGraphModel>
    </diagram>
    <diagram id="6a362bf0-769a-1384-dc90-91d55a1b6d18" name="06 - difficulty curve">
        <mxGraphModel dx="799" dy="713" grid="1" gridSize="10" guides="1" tooltips="1" connect="1" arrows="1" fold="1" page="1" pageScale="1" pageWidth="1100" pageHeight="850" background="#ffffff" math="0" shadow="0">
            <root>
                <mxCell id="0"/>
                <mxCell id="1" parent="0"/>
                <mxCell id="2" value="" style="endArrow=classic;html=1;strokeColor=#000000;strokeWidth=3;fontSize=14;fontColor=#000000;" parent="1" edge="1">
                    <mxGeometry width="50" height="50" relative="1" as="geometry">
                        <mxPoint x="370" y="350" as="sourcePoint"/>
                        <mxPoint x="680" y="350" as="targetPoint"/>
                    </mxGeometry>
                </mxCell>
                <mxCell id="3" value="" style="endArrow=classic;html=1;strokeColor=#000000;strokeWidth=3;fontSize=14;fontColor=#000000;" parent="1" edge="1">
                    <mxGeometry width="50" height="50" relative="1" as="geometry">
                        <mxPoint x="370" y="350" as="sourcePoint"/>
                        <mxPoint x="370" y="150" as="targetPoint"/>
                    </mxGeometry>
                </mxCell>
                <mxCell id="4" value="Difficulty" style="text;html=1;strokeColor=none;fillColor=none;align=center;verticalAlign=middle;whiteSpace=wrap;rounded=0;shadow=0;labelBackgroundColor=none;fontSize=14;fontColor=#000000;" parent="1" vertex="1">
                    <mxGeometry x="300" y="160" width="40" height="20" as="geometry"/>
                </mxCell>
                <mxCell id="5" value="Time" style="text;html=1;strokeColor=none;fillColor=none;align=center;verticalAlign=middle;whiteSpace=wrap;rounded=0;shadow=0;labelBackgroundColor=none;fontSize=14;fontColor=#000000;" parent="1" vertex="1">
                    <mxGeometry x="620" y="354" width="40" height="20" as="geometry"/>
                </mxCell>
                <mxCell id="6" value="" style="endArrow=none;html=1;strokeColor=#000000;strokeWidth=3;fontSize=14;fontColor=#000000;" parent="1" edge="1">
                    <mxGeometry width="50" height="50" relative="1" as="geometry">
                        <mxPoint x="370" y="350" as="sourcePoint"/>
                        <mxPoint x="450" y="330" as="targetPoint"/>
                    </mxGeometry>
                </mxCell>
                <mxCell id="7" value="" style="endArrow=none;html=1;strokeColor=#000000;strokeWidth=3;fontSize=14;fontColor=#000000;" parent="1" edge="1">
                    <mxGeometry width="50" height="50" relative="1" as="geometry">
                        <mxPoint x="480" y="280" as="sourcePoint"/>
                        <mxPoint x="560" y="260" as="targetPoint"/>
                    </mxGeometry>
                </mxCell>
                <mxCell id="8" value="" style="endArrow=none;html=1;strokeColor=#000000;strokeWidth=3;fontSize=14;fontColor=#000000;" parent="1" edge="1">
                    <mxGeometry width="50" height="50" relative="1" as="geometry">
                        <mxPoint x="450" y="330" as="sourcePoint"/>
                        <mxPoint x="480" y="280" as="targetPoint"/>
                    </mxGeometry>
                </mxCell>
                <mxCell id="10" value="" style="endArrow=none;html=1;strokeColor=#000000;strokeWidth=3;fontSize=14;fontColor=#000000;" parent="1" edge="1">
                    <mxGeometry width="50" height="50" relative="1" as="geometry">
                        <mxPoint x="560" y="260" as="sourcePoint"/>
                        <mxPoint x="590" y="210" as="targetPoint"/>
                    </mxGeometry>
                </mxCell>
                <mxCell id="12" value="" style="endArrow=classic;html=1;strokeColor=#000000;strokeWidth=3;fontSize=14;fontColor=#000000;" parent="1" edge="1">
                    <mxGeometry width="50" height="50" relative="1" as="geometry">
                        <mxPoint x="589" y="211" as="sourcePoint"/>
                        <mxPoint x="669" y="191" as="targetPoint"/>
                    </mxGeometry>
                </mxCell>
                <mxCell id="13" value="Course Difficulty" style="text;html=1;strokeColor=none;fillColor=none;align=center;verticalAlign=middle;whiteSpace=wrap;rounded=0;shadow=0;labelBackgroundColor=none;fontSize=20;fontColor=#000000;fontStyle=1" parent="1" vertex="1">
                    <mxGeometry x="430" y="130" width="170" height="20" as="geometry"/>
                </mxCell>
            </root>
        </mxGraphModel>
    </diagram>
</mxfile>